<?xml version="1.0" encoding="UTF-8"?>
<svg xmlns="http://www.w3.org/2000/svg" xmlns:xlink="http://www.w3.org/1999/xlink" xmlns:svgjs="http://svgjs.com/svgjs" version="1.1" width="512" height="512" x="0" y="0" viewBox="0 0 512 512" style="enable-background:new 0 0 512 512" xml:space="preserve" class="">
  <g>
<g xmlns="http://www.w3.org/2000/svg">
	<g>
		<path d="M437.02,74.98C388.667,26.629,324.38,0,256,0S123.333,26.629,74.98,74.98C26.629,123.333,0,187.62,0,256    s26.629,132.667,74.98,181.02C123.333,485.371,187.62,512,256,512s132.667-26.629,181.02-74.98    C485.371,388.667,512,324.38,512,256S485.371,123.333,437.02,74.98z M256,70c30.327,0,55,24.673,55,55c0,30.327-24.673,55-55,55    c-30.327,0-55-24.673-55-55C201,94.673,225.673,70,256,70z M326,420H186v-30h30V240h-30v-30h110v180h30V420z" fill="#ffffff" data-original="#000000" style="" class=""/>
	</g>
</g>















</g>
</svg>
