<?xml version="1.0" encoding="UTF-8"?>
<svg xmlns="http://www.w3.org/2000/svg" xmlns:xlink="http://www.w3.org/1999/xlink" xmlns:svgjs="http://svgjs.com/svgjs" version="1.1" width="512" height="512" x="0" y="0" viewBox="0 0 512 512" style="enable-background:new 0 0 512 512" xml:space="preserve" class="">
  <g transform="matrix(1,0,0,1,0,110)">
    <g xmlns="http://www.w3.org/2000/svg" id="Solid">
      <path d="m48 368a23.928 23.928 0 0 0 16.971-7.029l135.029-135.03 55.029 55.03a24 24 0 0 0 33.942 0l151.02-151.02-.009 54.049a24 24 0 0 0 24 24 24 24 0 0 0 24-24l.018-112a24 24 0 0 0 -24-24h-112a24 24 0 0 0 0 48h54.059l-134.059 134.059-55.029-55.03a24 24 0 0 0 -33.942 0l-152 152a24 24 0 0 0 16.971 40.971z" fill="#ffffff" data-original="#000000" style="" class=""/>
      <path d="m464 416h-416a24 24 0 0 0 0 48h416a24 24 0 0 0 0-48z" fill="#ffffff" data-original="#000000" style="" class=""/>
    </g>
  </g>
</svg>
